<svg width="192" height="192" viewBox="0 0 192 192" fill="none" xmlns="http://www.w3.org/2000/svg">
    <rect width="192" height="192" rx="96" fill="white"/>
    <path d="M75.1667 54.3333H116.833V87.0417C116.833 88.6389 116.486 90.0625 115.792 91.3125C115.097 92.5625 114.125 93.5694 112.875 94.3333L98.0833 103.083L101 112.667H116.833L103.917 121.833L108.917 137.667L96 127.875L83.0833 137.667L88.0833 121.833L75.1667 112.667H91L93.9167 103.083L79.125 94.3333C77.875 93.5694 76.9028 92.5625 76.2083 91.3125C75.5139 90.0625 75.1667 88.6389 75.1667 87.0417V54.3333V54.3333M91.8333 62.6667V92.0417L96 94.5417L100.167 92.0417V62.6667H91.8333V62.6667" fill="#545C8C"/>
    <rect x="104" y="33.75" width="48" height="48" rx="24" fill="url(#paint0_linear_27_33)"/>
    <path d="M121.825 67.25L123.45 60.225L118 55.5L125.2 54.875L128 48.25L130.8 54.875L138 55.5L132.55 60.225L134.175 67.25L128 63.525L121.825 67.25V67.25" fill="#FAF8FF"/>
    <defs>
        <linearGradient id="paint0_linear_27_33" x1="104" y1="33.75" x2="152" y2="81.75" gradientUnits="userSpaceOnUse">
            <stop stop-color="#545C8C"/>
            <stop offset="1" stop-color="#48507F"/>
        </linearGradient>
    </defs>
</svg>
